<?xml version="1.0" encoding="UTF-8" standalone="no"?>
<!-- Generator: Adobe Illustrator 27.5.0, SVG Export Plug-In . SVG Version: 6.00 Build 0)  -->

<svg
   version="1.1"
   x="0px"
   y="0px"
   viewBox="0 0 578.82599 548.04333"
   xml:space="preserve"
   id="svg1"
   sodipodi:docname="star.svg"
   width="578.82599"
   height="548.04333"
   inkscape:version="1.3.2 (091e20e, 2023-11-25, custom)"
   xmlns:inkscape="http://www.inkscape.org/namespaces/inkscape"
   xmlns:sodipodi="http://sodipodi.sourceforge.net/DTD/sodipodi-0.dtd"
   xmlns="http://www.w3.org/2000/svg"
   xmlns:svg="http://www.w3.org/2000/svg"><defs
   id="defs1" /><sodipodi:namedview
   id="namedview1"
   pagecolor="#505050"
   bordercolor="#ffffff"
   borderopacity="1"
   inkscape:showpageshadow="0"
   inkscape:pageopacity="0"
   inkscape:pagecheckerboard="1"
   inkscape:deskcolor="#505050"
   inkscape:zoom="0.81907308"
   inkscape:cx="289.35147"
   inkscape:cy="274.09032"
   inkscape:window-width="1920"
   inkscape:window-height="1171"
   inkscape:window-x="-9"
   inkscape:window-y="-9"
   inkscape:window-maximized="1"
   inkscape:current-layer="svg1" />

<g
   id="Object"
   transform="translate(-271.58679,-286.978)">
	<path
   style="fill:#cc8dd4;fill-opacity:1"
   d="m 849.54,487.32 c -1.888,-5.159 -6.5,-8.796 -11.959,-9.426 L 655.099,457.03 573.493,294.94 c -2.457,-4.863 -7.493,-7.962 -12.933,-7.962 -5.465,0 -10.482,3.099 -12.933,7.962 l -81.794,162.483 -181.931,27.334 c -5.387,0.802 -9.901,4.609 -11.596,9.786 -1.707,5.178 -0.315,10.936 3.534,14.776 L 406.069,639.12 383.47,818.739 c -0.678,5.411 1.767,10.794 6.282,13.829 4.527,3.038 10.434,3.274 15.185,0.599 l 159.369,-89.74 158.546,87.994 c 4.769,2.642 10.658,2.375 15.172,-0.693 4.515,-3.068 6.924,-8.467 6.21,-13.862 L 720.274,635.404 846.453,502.237 c 3.776,-3.996 4.956,-9.755 3.087,-14.917 z"
   id="path1" />
</g>
</svg>
